<svg width="20" height="20" viewBox="0 0 20 20" fill="none" xmlns="http://www.w3.org/2000/svg">
<path d="M17.1474 4.24987L9.21019 12.1862C9.44555 12.5231 9.64567 12.887 9.80638 13.2727L11.7868 18.0407L17.1474 4.24883V4.24987ZM7.81354 10.7897L15.7517 2.85234L1.95839 8.21231L6.72691 10.1935C7.10966 10.3523 7.47402 10.5521 7.81354 10.7897ZM19.8598 2.63877L13.6106 18.7146C13.2166 19.7306 12.0792 20.2521 11.0713 19.8799C10.8259 19.7891 10.6018 19.6486 10.4132 19.4672C10.2246 19.2858 10.0755 19.0673 9.97539 18.8255L7.99499 14.0575C7.60965 13.1283 6.87127 12.39 5.942 12.0047L1.17245 10.0245C0.183281 9.61296 -0.26879 8.46943 0.164618 7.46793C0.270889 7.22322 0.424549 7.00196 0.616741 6.81691C0.808932 6.63185 1.03585 6.48667 1.28443 6.38971L17.362 0.139169C17.7113 -0.00159713 18.0944 -0.0365302 18.4634 0.0387177C18.8325 0.113966 19.1712 0.296072 19.4376 0.562372C19.7039 0.828672 19.886 1.16741 19.9613 1.53642C20.0365 1.90543 20.0016 2.28842 19.8608 2.63773L19.8598 2.63877Z" fill="#143D59"/>
</svg>
